<?xml version="1.0" encoding="UTF-8"?>
<!DOCTYPE svg PUBLIC "-//W3C//DTD SVG 1.1//EN" "http://www.w3.org/Graphics/SVG/1.1/DTD/svg11.dtd">
<!-- Creator: CorelDRAW 2017 -->
<svg xmlns="http://www.w3.org/2000/svg" xml:space="preserve" width="53.1203mm" height="46.1306mm" version="1.1" style="shape-rendering:geometricPrecision; text-rendering:geometricPrecision; image-rendering:optimizeQuality; fill-rule:evenodd; clip-rule:evenodd"
viewBox="0 0 3995 3469"
 xmlns:xlink="http://www.w3.org/1999/xlink">
 <defs>
  <style type="text/css">
   <![CDATA[
    .str0 {stroke:#373435;stroke-width:225.611}
    .fil0 {fill:none}
    .fil1 {fill:#373435}
   ]]>
  </style>
 </defs>
 <g id="Слой_x0020_1">
  <metadata id="CorelCorpID_0Corel-Layer"/>
  <g id="_2583597494880">
   <path class="fil0 str0" d="M347 3232c132,-350 244,-651 337,-905 -646,-531 -763,-1116 -254,-1671 428,-467 1019,-613 1681,-512 825,125 1362,461 1562,1015 91,253 14,517 -179,776 -389,-160 -687,-121 -897,117 -158,179 -238,352 -239,520 -411,87 -774,92 -1089,17 -610,440 -918,654 -923,644l0 0z"/>
   <ellipse class="fil0 str0" cx="3118" cy="2598" rx="764" ry="759"/>
   <line class="fil0 str0" x1="2865" y1="2326" x2="3402" y2= "2868" />
   <line class="fil0 str0" x1="2862" y1="2876" x2="3411" y2= "2317" />
   <ellipse class="fil1 str0" cx="1062" cy="1408" rx="238" ry="232"/>
   <ellipse class="fil1 str0" cx="1842" cy="1408" rx="238" ry="232"/>
   <ellipse class="fil1 str0" cx="2609" cy="1408" rx="238" ry="232"/>
  </g>
 </g>
</svg>
